# xmcd CD database file generated by OrangeCD 5.2
#
# Track frame offsets:
#	150
#	17463
#	36819
#	54139
#	72408
#	87886
#	109129
#	123241
#	139793
#	160317
#	178535
#	197773
#
# Disc length: 2834 seconds
#
# Revision: 1
# Processed by: cddbd v1.5.1PL0 Copyright (c) Steve Scherf et al.
# Submitted via: OrangeCD 5.2
#
DISCID=980b100c
DTITLE=Various Artist - The Ultimate In Dance
DYEAR=2000
DGENRE=Country
TTITLE0=Ethan Allen - Keep Your Hands To Yourself
TTITLE1=Lonestar Country - How Do You Like Me Now
TTITLE2=Deans - She's So Hot
TTITLE3=E-Type - Hold Your Horses
TTITLE4=Lonestar Country - Never Let Her Slip Away
TTITLE5=Deans - Rodeo Rock
TTITLE6=Nadine Somers - Temptation
TTITLE7=Bunch - You Ain't Seen Nothin' Yet
TTITLE8=Bunch - Show Me The Way
TTITLE9=Nadine Somers - The Only Thing That Looks Good On Me Is You
TTITLE10=Bunch - Start The Car
TTITLE11=Ethan Allen - Let's Go Crazy
EXTD=
EXTT0=
EXTT1=
EXTT2=
EXTT3=
EXTT4=
EXTT5=
EXTT6=
EXTT7=
EXTT8=
EXTT9=
EXTT10=
EXTT11=
PLAYORDER=
